<mxfile host="app.diagrams.net" modified="2023-02-14T17:01:50.061Z" agent="5.0 (X11; Linux x86_64) AppleWebKit/537.36 (KHTML, like Gecko) Chrome/109.0.0.0 Safari/537.36" etag="7ot2PVOj_XoxCVv8VJJz" version="20.8.20" type="github">
  <diagram name="Page-1" id="OMhYwdzrN42UqsuaILPQ">
    <mxGraphModel dx="2000" dy="1135" grid="1" gridSize="10" guides="1" tooltips="1" connect="1" arrows="1" fold="1" page="1" pageScale="1" pageWidth="827" pageHeight="1169" math="0" shadow="0">
      <root>
        <mxCell id="0" />
        <mxCell id="1" parent="0" />
        <mxCell id="YhMv8sMw9ys16V4eddR2-10" value="RISC-V" style="triangle;whiteSpace=wrap;html=1;rotation=90;" vertex="1" parent="1">
          <mxGeometry x="90" y="430" width="60" height="80" as="geometry" />
        </mxCell>
        <mxCell id="YhMv8sMw9ys16V4eddR2-13" value="" style="group" vertex="1" connectable="0" parent="1">
          <mxGeometry x="80" y="160" width="80" height="160" as="geometry" />
        </mxCell>
        <mxCell id="YhMv8sMw9ys16V4eddR2-11" value="&lt;font style=&quot;font-size: 16px;&quot;&gt;JVM&lt;/font&gt;" style="whiteSpace=wrap;html=1;aspect=fixed;" vertex="1" parent="YhMv8sMw9ys16V4eddR2-13">
          <mxGeometry width="80" height="80" as="geometry" />
        </mxCell>
        <mxCell id="YhMv8sMw9ys16V4eddR2-12" value="&lt;font style=&quot;font-size: 16px;&quot;&gt;RISC-V&lt;/font&gt;" style="whiteSpace=wrap;html=1;aspect=fixed;" vertex="1" parent="YhMv8sMw9ys16V4eddR2-13">
          <mxGeometry y="80" width="80" height="80" as="geometry" />
        </mxCell>
        <mxCell id="YhMv8sMw9ys16V4eddR2-14" value="" style="group" vertex="1" connectable="0" parent="1">
          <mxGeometry x="320" y="200" width="240" height="160" as="geometry" />
        </mxCell>
        <mxCell id="YhMv8sMw9ys16V4eddR2-5" value="&lt;font style=&quot;font-size: 16px;&quot;&gt;JVM&lt;/font&gt;" style="rounded=0;whiteSpace=wrap;html=1;" vertex="1" parent="YhMv8sMw9ys16V4eddR2-14">
          <mxGeometry x="80" y="80" width="80" height="80" as="geometry" />
        </mxCell>
        <mxCell id="YhMv8sMw9ys16V4eddR2-7" value="&lt;font style=&quot;&quot;&gt;&lt;font style=&quot;font-size: 16px;&quot;&gt;JVM&lt;/font&gt;&lt;/font&gt;" style="rounded=0;whiteSpace=wrap;html=1;" vertex="1" parent="YhMv8sMw9ys16V4eddR2-14">
          <mxGeometry width="80" height="80" as="geometry" />
        </mxCell>
        <mxCell id="YhMv8sMw9ys16V4eddR2-8" value="" style="rounded=0;whiteSpace=wrap;html=1;" vertex="1" parent="YhMv8sMw9ys16V4eddR2-14">
          <mxGeometry x="80" width="80" height="80" as="geometry" />
        </mxCell>
        <mxCell id="YhMv8sMw9ys16V4eddR2-9" value="&lt;font style=&quot;font-size: 16px;&quot;&gt;RISC-V&lt;/font&gt;" style="rounded=0;whiteSpace=wrap;html=1;" vertex="1" parent="YhMv8sMw9ys16V4eddR2-14">
          <mxGeometry x="160" width="80" height="80" as="geometry" />
        </mxCell>
        <mxCell id="YhMv8sMw9ys16V4eddR2-16" value="" style="group" vertex="1" connectable="0" parent="1">
          <mxGeometry x="320" y="440" width="240" height="160" as="geometry" />
        </mxCell>
        <mxCell id="YhMv8sMw9ys16V4eddR2-17" value="&lt;font style=&quot;font-size: 16px;&quot;&gt;JVM&lt;/font&gt;" style="rounded=0;whiteSpace=wrap;html=1;" vertex="1" parent="YhMv8sMw9ys16V4eddR2-16">
          <mxGeometry x="80" y="80" width="80" height="80" as="geometry" />
        </mxCell>
        <mxCell id="YhMv8sMw9ys16V4eddR2-18" value="&lt;font style=&quot;&quot;&gt;&lt;font style=&quot;font-size: 16px;&quot;&gt;Java&lt;/font&gt;&lt;/font&gt;" style="rounded=0;whiteSpace=wrap;html=1;" vertex="1" parent="YhMv8sMw9ys16V4eddR2-16">
          <mxGeometry width="80" height="80" as="geometry" />
        </mxCell>
        <mxCell id="YhMv8sMw9ys16V4eddR2-19" value="" style="rounded=0;whiteSpace=wrap;html=1;" vertex="1" parent="YhMv8sMw9ys16V4eddR2-16">
          <mxGeometry x="80" width="80" height="80" as="geometry" />
        </mxCell>
        <mxCell id="YhMv8sMw9ys16V4eddR2-20" value="&lt;font style=&quot;font-size: 16px;&quot;&gt;JVM&lt;/font&gt;" style="rounded=0;whiteSpace=wrap;html=1;" vertex="1" parent="YhMv8sMw9ys16V4eddR2-16">
          <mxGeometry x="160" width="80" height="80" as="geometry" />
        </mxCell>
      </root>
    </mxGraphModel>
  </diagram>
</mxfile>
